<?xml version="1.0" encoding="utf-8"?>
<!-- Generator: Adobe Illustrator 24.2.3, SVG Export Plug-In . SVG Version: 6.00 Build 0)  -->
<svg version="1.1" id="Capa_1" xmlns="http://www.w3.org/2000/svg" xmlns:xlink="http://www.w3.org/1999/xlink" x="0px" y="0px"
	 viewBox="0 0 24 24" style="enable-background:new 0 0 24 24;" xml:space="preserve">
<style type="text/css">
	.st0{fill:#0C0E0E;}
	.st1{fill:#7D92CA;}
	.st2{fill:#FFFFFF;}
</style>
<rect class="st0" width="24" height="24"/>
<rect y="15.3" class="st1" width="24" height="8.7"/>
<g>
	<path class="st2" d="M15.7,21.3l-3.4-5h-0.2H8.5v5H4.4V3.5h7.7c1.6,0,2.9,0.3,4.1,0.8c1.2,0.5,2.1,1.3,2.7,2.2
		c0.6,1,0.9,2.1,0.9,3.4c0,1.3-0.3,2.5-1,3.4c-0.6,1-1.5,1.7-2.7,2.2l4,5.7H15.7z M14.7,7.7c-0.6-0.5-1.6-0.8-2.8-0.8H8.5v6.2h3.4
		c1.2,0,2.2-0.3,2.8-0.8c0.6-0.5,1-1.3,1-2.3C15.6,9,15.3,8.2,14.7,7.7z"/>
</g>
</svg>
