<svg xmlns="http://www.w3.org/2000/svg" width="200" viewBox="0 0 65.581 20.004"><defs><clipPath id="a" clipPathUnits="userSpaceOnUse"><path d="M0 841.89h595.28V0H0Z"/></clipPath><clipPath id="b" clipPathUnits="userSpaceOnUse"><path d="M236.903 753.215h127.594v53.346H236.903Z"/></clipPath></defs><g style="display:inline"><g clip-path="url(#a)" style="fill:#fff" transform="matrix(.39678 0 0 -.39678 -100.31 323.769)"><g style="fill:#fff"><path d="M0 0v-9.884h3.116c1.359 0 2.522.482 3.488 1.448.965.966 1.449 2.132 1.449 3.499 0 1.368-.484 2.532-1.449 3.494C5.638-.48 4.475 0 3.116 0Zm3.425-10.916a4.377 4.377 0 0 0-.309-.011H0v-6.357h-1.03V1.042h4.81C5.178.852 6.364.267 7.343-.71c1.168-1.168 1.752-2.577 1.752-4.227 0-1.656-.584-3.069-1.752-4.237-.81-.81-1.738-1.341-2.784-1.593l4.226-6.517h-1.27z" style="fill:#fff;fill-opacity:1;fill-rule:nonzero;stroke:none" transform="translate(273.846 798.997)"/></g><g style="fill:#fff"><path d="m0 0-5.727-15.738h-1.099L0 3.012l6.815-18.75H5.727Z" style="fill:#fff;fill-opacity:1;fill-rule:nonzero;stroke:none" transform="translate(292.985 797.451)"/></g><g style="fill:#fff"><path d="M0 0h1.042v-13.172c-.19-1.397-.775-2.585-1.752-3.562-1.169-1.168-2.577-1.753-4.227-1.753-1.657 0-3.07.585-4.238 1.753-1.168 1.168-1.752 2.577-1.752 4.226V0h1.042v-12.508c0-1.359.483-2.522 1.449-3.487.965-.966 2.132-1.449 3.499-1.449s2.532.483 3.494 1.449C-.481-15.03 0-13.867 0-12.508z" style="fill:#fff;fill-opacity:1;fill-rule:nonzero;stroke:none" transform="translate(314.426 800.04)"/></g><g style="fill:#fff"><path d="M0 0v18.326h1.03V1.031h7.102V0Z" style="fill:#fff;fill-opacity:1;fill-rule:nonzero;stroke:none" transform="translate(323.553 781.713)"/></g><g style="fill:#fff"><path d="M0 0c-1.306.435-2.337 1.031-3.093 1.787-.756.756-1.134 1.672-1.134 2.749 0 1.053.378 1.96 1.134 2.72.756.76 1.673 1.14 2.749 1.14 1.07 0 1.986-.378 2.749-1.134.42-.405.71-.859.87-1.363l-.927-.367a2.847 2.847 0 0 1-.675 1.031 2.77 2.77 0 0 1-2.017.825 2.757 2.757 0 0 1-2.015-.83 2.741 2.741 0 0 1-.836-2.022c0-.787.278-1.459.836-2.016.518-.512 1.237-.981 2.153-1.409C1.26.637 2.493-.099 3.493-1.1c1.062-1.053 1.593-2.329 1.593-3.825 0-1.505-.531-2.787-1.593-3.849-1.061-1.061-2.34-1.592-3.837-1.592-1.497 0-2.775.534-3.837 1.604-.847.847-1.355 1.832-1.523 2.955l.974.355c.106-.993.53-1.86 1.271-2.6.862-.863 1.901-1.294 3.115-1.294 1.222 0 2.264.431 3.127 1.294s1.295 1.905 1.295 3.127c0 1.214-.432 2.252-1.295 3.115C2.027-1.054 1.1-.451 0 0" style="fill:#fff;fill-opacity:1;fill-rule:nonzero;stroke:none" transform="translate(345.639 791.437)"/></g><g style="fill:#fff"><path d="m0 0-5.727-15.738h-1.099L0 3.013l6.815-18.751H5.727Z" style="fill:#fff;fill-opacity:1;fill-rule:nonzero;stroke:none" transform="translate(360.104 797.026)"/></g><g style="fill:#fff"><path d="M0 0h1.133l9.416-16.299V0h1.03v-18.327h-1.03L1.03-1.867v-16.46H0Z" style="fill:#fff;fill-opacity:1;fill-rule:nonzero;stroke:none" transform="translate(370.618 799.615)"/></g><g style="fill:#fff"><path d="M0 0h-9.988v1.031H1.775l-10-17.296h10v-1.031H-9.988Z" style="fill:#fff;fill-opacity:1;fill-rule:nonzero;stroke:none" transform="translate(397.029 798.585)"/></g></g><g clip-path="url(#b)" style="display:inline" transform="matrix(.64655 0 0 -.64655 -162.63 514.212)"><path d="M-2.405 15.459A50.642 50.642 0 0 0 0 0a50.56 50.56 0 0 0-2.388-15.404m-96.406 0A50.559 50.559 0 0 0-101.182 0a50.56 50.56 0 0 0 2.401 15.446" style="fill:none;stroke:#7c91cc;stroke-width:.25;stroke-linecap:butt;stroke-linejoin:miter;stroke-miterlimit:10;stroke-dasharray:none;stroke-opacity:1" transform="translate(352.842 779.818)"/></g></g></svg>